PathFileType	4	(X/Y/Z)	C:\Users\Basilio\Documents\Thesis Gigler\squatting_fais\c3dfiles\047\SLS_pre_front2\markers_experimental.trc
DataRate	CameraRate	NumFrames	NumMarkers	Units	OrigDataRate	OrigDataStartFrame	OrigNumFrames
200.000000	200.000000	4	60	mm	200.000000	471	1258
Frame#	Time	FHD			LBHD			RBHD			C7			T10			CLAV			LSHO			LUUPA			LMUPA			LDUPA			LLEP			LMEP			LRAD			LUL			LRFIN			RSHO			RUPA1			RMUPA			RDUPA			RLEP			RMEP			RRAD			RUL			RUFIN			LASI			RASI			USACR			LSACR			RSACR			LTHI1			LTHI2			LTHI3			LTHI4			LLFC			LMFC			LTIB1			LTIB2			LTIB3			LTIB4			LLMAL			LMMAL			LMT1			LMT2			LMT5			RTHI			RTHI2			RTHI3			RTHI4			RLFC			RMFC			RTIB1			RTIB2			RTIB3			RTIB4			RLMAL			RMMAL			RHEE			RMT1			RMT2			RMT5			
		X1	Y1	Z1	X2	Y2	Z2	X3	Y3	Z3	X4	Y4	Z4	X5	Y5	Z5	X6	Y6	Z6	X7	Y7	Z7	X8	Y8	Z8	X9	Y9	Z9	X10	Y10	Z10	X11	Y11	Z11	X12	Y12	Z12	X13	Y13	Z13	X14	Y14	Z14	X15	Y15	Z15	X16	Y16	Z16	X17	Y17	Z17	X18	Y18	Z18	X19	Y19	Z19	X20	Y20	Z20	X21	Y21	Z21	X22	Y22	Z22	X23	Y23	Z23	X24	Y24	Z24	X25	Y25	Z25	X26	Y26	Z26	X27	Y27	Z27	X28	Y28	Z28	X29	Y29	Z29	X30	Y30	Z30	X31	Y31	Z31	X32	Y32	Z32	X33	Y33	Z33	X34	Y34	Z34	X35	Y35	Z35	X36	Y36	Z36	X37	Y37	Z37	X38	Y38	Z38	X39	Y39	Z39	X40	Y40	Z40	X41	Y41	Z41	X42	Y42	Z42	X43	Y43	Z43	X44	Y44	Z44	X45	Y45	Z45	X46	Y46	Z46	X47	Y47	Z47	X48	Y48	Z48	X49	Y49	Z49	X50	Y50	Z50	X51	Y51	Z51	X52	Y52	Z52	X53	Y53	Z53	X54	Y54	Z54	X55	Y55	Z55	X56	Y56	Z56	X57	Y57	Z57	X58	Y58	Z58	X59	Y59	Z59	X60	Y60	Z60	

472	2.355	-104.1283264160157	1497.6220703125	-1094.65087890625	-282.7543945312501	1475.673095703125	-1127.436279296875	-265.3852539062501	1478.507690429688	-979.682067871094	-335.7532653808594	1317.399047851563	-1051.448852539063	-443.1257629394532	1032.021728515625	-1013.183166503906	-192.4976806640626	1234.490966796875	-1073.038208007813	-265.8562316894532	1290.219970703125	-1210.033325195313	-182.8296661376953	1223.542602539063	-1340.5048828125	-152.8850708007813	1262.68017578125	-1331.463500976563	-117.4162368774414	1228.458862304688	-1364.055541992188	-55.14986801147462	1246.879150390625	-1380.75341796875	-30.18197822570801	1184.662963867188	-1339.485717773438	216.4422607421876	1252.28466796875	-1370.279541015625	198.4211730957032	1269.546875	-1443.690063476563	293.6916503906251	1284.422607421875	-1397.365356445313	-228.8162841796876	1304.4189453125	-931.8648681640627	-99.64930725097659	1246.304809570313	-825.5914306640627	-72.99507141113283	1278.066650390625	-851.582946777344	-29.95877838134766	1242.20947265625	-829.2966308593752	37.73191833496094	1253.5849609375	-843.3342895507815	41.71087646484376	1184.207885742188	-887.209167480469	292.5704345703126	1244.978637695313	-932.037048339844	294.6181945800782	1263.536743164063	-861.2222900390627	375.1969299316407	1265.853149414063	-929.5187988281252	-326.6558532714844	784.243103027344	-1088.968627929688	-311.1958007812501	826.2717895507815	-867.5100097656252	-494.2859802246095	887.7827148437502	-983.8826293945315	-508.8002319335939	855.2464599609377	-1006.88525390625	-501.3568420410157	860.4093017578127	-951.098571777344	-339.8513793945313	648.7906494140626	-1161.69921875	-259.4239807128907	623.0017089843751	-1169.702392578125	-227.3722839355469	658.6019897460939	-1159.0986328125	-239.0957489013672	566.2302246093751	-1172.700561523438	-136.8390655517578	439.1614685058595	-1149.118408203125	-93.27304077148439	451.103973388672	-1028.959350585938	-163.5319061279297	286.7112121582032	-1030.231079101563	-194.4608917236329	239.9121704101563	-1096.56982421875	-180.3768615722657	235.4643249511719	-1051.446533203125	-233.1093139648438	183.883041381836	-1013.944274902344	-324.5228881835938	114.7341384887696	-1054.338989257813	-298.6521911621094	139.367660522461	-968.6531982421877	-190.6023101806641	63.54620742797853	-979.9924316406252	-187.8316802978516	59.09699630737306	-1024.909790039063	-237.2865600585938	43.25153350830079	-1069.517944335938	-292.6380004882813	680.3421020507814	-760.8850097656251	-225.8769073486329	678.0825195312501	-767.8536987304689	-209.1689758300782	702.5655517578126	-781.9458007812502	-178.9945373535157	608.7888183593751	-771.4583740234377	-59.93153381347658	526.4348754882814	-796.429626464844	-50.9944305419922	523.7786254882814	-920.194274902344	49.32405090332033	452.3521118164064	-820.979675292969	60.82562637329103	355.1509094238282	-771.0375976562502	90.86334228515626	380.1589355468751	-795.6010742187502	123.6726913452149	345.7180786132813	-829.9963378906252	174.4311981201172	195.2947387695313	-788.4096679687502	173.8103485107422	209.4583129882813	-879.103942871094	139.4454956054688	128.7041473388672	-828.1191406250002	322.0778503417969	216.8858947753907	-883.8624267578127	328.0252075195313	231.1733093261719	-841.9820556640627	309.4639282226563	193.5445709228516	-777.7691040039065	
473	2.36	-103.7864837646485	1496.099731445313	-1094.686889648438	-282.2111816406251	1474.189575195313	-1127.511352539063	-264.8652343750001	1477.243041992188	-979.973571777344	-335.2326354980469	1316.06591796875	-1051.6064453125	-443.2349548339845	1031.131469726563	-1013.184753417969	-192.1953277587891	1233.055786132813	-1073.041870117188	-265.6281738281251	1289.033081054688	-1209.96240234375	-182.6829071044922	1222.24951171875	-1340.556640625	-152.5879669189453	1261.3232421875	-1331.605102539063	-117.2787475585938	1227.23681640625	-1364.146850585938	-55.00351715087892	1245.546264648438	-1380.840576171875	-29.91508865356446	1183.359130859375	-1339.84033203125	216.6190948486329	1250.82958984375	-1370.362426757813	198.7025299072266	1268.307739257813	-1443.681640625	293.8849487304688	1283.427368164063	-1397.267333984375	-228.3565216064454	1303.06103515625	-932.0098876953127	-98.94458770751956	1244.963989257813	-824.949890136719	-72.48540496826173	1276.76318359375	-851.8276367187502	-29.57015991210938	1240.835693359375	-829.2322387695315	38.01527404785157	1252.200927734375	-843.1677246093752	42.38803482055665	1183.031616210938	-887.6160278320315	291.2141723632813	1242.53271484375	-930.7042236328127	294.9493103027344	1262.168212890625	-861.0986938476565	375.7158813476563	1264.79248046875	-929.4704589843752	-327.0647583007813	782.944274902344	-1088.990356445313	-311.3070373535157	825.1320800781252	-867.6368408203127	-494.3967285156251	886.6406250000002	-983.828796386719	-509.0661926269532	854.4479980468752	-1006.742736816406	-501.4561767578126	859.0722656250002	-951.0549316406252	-340.0242004394532	647.5787353515626	-1161.651489257813	-259.3679199218751	622.1456909179689	-1169.719604492188	-227.4484405517579	657.7958374023439	-1159.135498046875	-239.024398803711	565.5309448242189	-1172.646850585938	-136.3419647216797	438.7360229492189	-1149.331176757813	-93.10448455810548	450.4671020507814	-1028.640869140625	-163.1789245605469	286.3899536132813	-1030.205810546875	-194.2161560058594	239.5725708007813	-1096.586181640625	-180.115463256836	235.1191101074219	-1051.41064453125	-233.0206451416016	183.7977142333985	-1013.891357421875	-324.5254821777344	114.7338333129883	-1054.351318359375	-298.6496887207032	139.3316955566407	-968.6287231445315	-190.5023651123047	63.58386230468751	-980.0507812500002	-187.8377838134766	59.09447860717775	-1024.912963867188	-237.3323211669922	43.19446182250977	-1069.478149414063	-292.7322998046876	679.4065551757814	-760.7052001953126	-225.8363342285157	677.5178222656251	-767.9084472656251	-209.2634277343751	701.7160644531251	-781.6829833984377	-178.7890014648438	607.5732421875001	-771.2183227539065	-59.84098434448244	525.7210083007814	-796.2273559570315	-50.53268432617189	522.9130859375001	-920.5090332031252	49.40892791748048	451.6777343750001	-820.6113891601565	60.93321990966798	354.2796936035157	-770.7398681640627	91.27185058593751	379.5585021972657	-795.5157470703127	124.2657699584961	345.0813293457032	-829.936706542969	174.8293151855469	194.6941833496094	-788.6156005859377	174.3200988769532	209.0116882324219	-879.0579223632815	139.8239288330078	128.3122253417969	-827.7369384765627	322.6574707031251	216.6556549072266	-883.796081542969	328.7765197753907	230.8718261718751	-841.953063964844	310.0891418457032	193.1441802978516	-777.576599121094	
474	2.365	-103.222885131836	1495.032836914063	-1094.7421875	-281.7756652832032	1472.7470703125	-1127.541870117188	-264.5583801269532	1475.648803710938	-979.9453735351565	-334.8343200683594	1314.679077148438	-1051.48486328125	-442.8868408203126	1029.589233398438	-1012.943237304688	-191.6365661621094	1231.641723632813	-1073.318725585938	-265.1631164550782	1287.6015625	-1210.133178710938	-182.4956512451172	1220.963623046875	-1340.71923828125	-152.6334075927735	1260.078857421875	-1331.492797851563	-116.9495468139649	1225.82763671875	-1364.16357421875	-54.66272354125978	1244.247314453125	-1380.90087890625	-30.38463592529298	1181.839477539063	-1340.9609375	216.5077362060547	1249.52783203125	-1370.154296875	199.0831146240235	1267.081298828125	-1443.632080078125	291.9654846191407	1282.071899414063	-1396.338989257813	-227.9523315429688	1301.761962890625	-932.0911254882815	-98.769889831543	1243.47900390625	-825.2856445312502	-72.14662170410158	1275.447387695313	-851.9737548828127	-29.40689659118653	1239.4931640625	-829.1051025390627	38.47509002685548	1250.814208984375	-843.337341308594	42.76620483398438	1181.509399414063	-887.2705078125002	291.6239013671876	1241.309692382813	-930.9021606445315	295.7287292480469	1260.968994140625	-861.4724731445315	375.6744384765626	1263.649536132813	-929.0212402343752	-326.7459106445313	781.514831542969	-1089.206176757813	-311.3057861328126	823.9449462890627	-867.7486572265627	-494.5608520507814	885.4299926757815	-983.8229980468752	-508.906219482422	852.6174926757815	-1006.673767089844	-502.7369995117189	858.0368652343752	-950.7039794921877	-339.9707946777344	646.6756591796876	-1161.593017578125	-259.4210815429688	621.4403076171876	-1169.606811523438	-227.5694732666016	656.8491210937501	-1159.033203125	-238.9260253906251	564.7025146484376	-1172.66943359375	-135.8040771484375	438.2523498535157	-1149.522338867188	-92.62690734863283	449.8380432128907	-1028.732055664063	-162.9747772216797	286.2449035644532	-1030.129150390625	-194.1593475341797	239.2447052001954	-1096.603637695313	-179.9747619628907	235.0899200439454	-1051.53369140625	-232.9707641601563	183.5905914306641	-1013.779724121094	-324.5068969726563	114.712158203125	-1054.302001953125	-298.6126098632813	139.3155364990235	-968.6517333984377	-190.4302978515625	63.56255340576173	-980.0958251953127	-187.8316802978516	59.09699630737306	-1024.909790039063	-237.3135986328126	43.1634864807129	-1069.473022460938	-292.6324157714844	678.4427490234376	-760.4489746093751	-225.8486785888672	676.4655761718751	-767.8233642578126	-209.1944580078126	700.8456420898439	-781.6895751953127	-178.5586700439453	606.9561767578126	-771.4276123046877	-59.57536697387697	524.9401855468751	-796.3128662109377	-50.82345581054689	521.8901367187501	-920.376403808594	49.84139633178712	451.299774169922	-821.1699218750002	61.2669143676758	353.4805297851563	-770.850524902344	91.59192657470705	378.8734130859376	-795.2366943359377	124.7306213378907	344.7142639160157	-830.014587402344	175.4027252197266	194.1354064941407	-788.5778808593752	174.8961181640625	208.4740905761719	-878.9331665039065	140.1470184326172	128.1225280761719	-827.6054687500002	323.0794677734376	216.4972381591797	-883.7382812500002	329.3669738769532	230.8387145996094	-842.296081542969	310.6809692382813	192.949691772461	-777.5925903320315	
475	2.37	-102.8881988525391	1493.584106445313	-1094.977905273438	-281.3666076660157	1471.329956054688	-1127.674194335938	-263.9388732910157	1474.236328125	-980.1521606445315	-334.4115600585938	1313.400512695313	-1051.690185546875	-443.0482482910157	1029.01171875	-1013.091491699219	-191.5814819335938	1230.223754882813	-1073.230590820313	-265.1171264648438	1286.350830078125	-1209.993896484375	-182.075668334961	1219.5751953125	-1340.787475585938	-152.1144104003907	1258.682495117188	-1331.85107421875	-116.6316146850586	1224.447143554688	-1364.301391601563	-54.59749603271486	1242.904296875	-1381.048095703125	-29.68567276000977	1179.970947265625	-1340.491577148438	216.9330291748047	1248.386962890625	-1370.253051757813	199.3437500000001	1265.819458007813	-1443.77978515625	293.7553100585938	1280.959106445313	-1396.803344726563	-227.4408569335938	1300.427368164063	-932.251647949219	-98.32752227783206	1242.44580078125	-825.494323730469	-71.88929748535158	1274.01025390625	-851.9033813476565	-28.94153213500977	1238.190063476563	-829.2016601562502	38.74644470214844	1249.550170898438	-843.1495361328127	43.15530395507813	1180.380981445313	-887.527038574219	291.8638000488282	1239.987060546875	-930.7539062500002	295.8152770996094	1259.477172851563	-861.2088623046877	375.8624877929688	1262.620727539063	-928.917175292969	-326.8041687011719	780.593688964844	-1089.245727539063	-311.5949707031251	822.987243652344	-867.6048583984377	-494.6194152832032	884.4659423828127	-983.6538696289065	-508.9068298339845	851.400573730469	-1006.626892089844	-502.5813598632814	856.6909179687502	-950.7798461914065	-340.1142578125001	645.7617797851564	-1161.53369140625	-259.4595336914063	620.6953125000001	-1169.720825195313	-227.4959259033204	656.2097167968751	-1159.19970703125	-238.7144012451172	563.9628295898439	-1172.720703125	-135.2524719238282	437.7694396972657	-1149.71923828125	-91.71746063232423	449.2489013671876	-1029.358764648438	-162.6691131591797	285.8874511718751	-1030.119262695313	-193.8874816894532	238.9155426025391	-1096.622924804688	-179.6358337402344	234.7941894531251	-1051.601318359375	-232.8517608642579	183.340072631836	-1013.971374511719	-324.5153503417969	114.7165756225586	-1054.335693359375	-298.5082092285157	139.3549194335938	-968.6706542968752	-190.3425750732422	63.61927413940431	-980.1519775390627	-187.8401641845703	59.09344863891603	-1024.942016601563	-237.2353515625001	43.2229347229004	-1069.557495117188	-292.4595336914063	677.4036865234376	-760.4255371093751	-225.7157440185547	675.4457397460939	-767.6403808593751	-209.1152648925782	699.8687744140626	-781.803405761719	-178.5423583984375	606.2609252929689	-771.2557373046877	-59.55743789672853	524.0318603515626	-796.2070922851565	-50.73707580566408	521.3347778320314	-920.4302978515627	50.09519195556642	450.4922790527345	-821.0502929687502	61.6095314025879	352.9433898925782	-770.6629638671877	92.01354980468751	378.1464843750001	-795.4075927734377	124.9632644653321	344.0514831542969	-830.041687011719	175.8813171386719	193.7042694091797	-788.5278930664065	175.2450408935547	207.9304656982422	-878.7944946289065	140.8670654296875	127.6211242675782	-827.576843261719	323.7234802246094	215.9846343994141	-883.6625976562502	329.6232299804688	230.2093200683594	-841.853942871094	311.0558471679688	192.7219543457032	-777.5427856445315	
